HIERARCHY
ROOT Hips
{
	OFFSET 0.000000  0.463670  0.080341
	CHANNELS 6 Xposition Yposition Zposition Zrotation Yrotation Xrotation 
	JOINT LHipJoint
	{
		OFFSET 0 0 0
		CHANNELS 3 Zrotation Yrotation Xrotation
		JOINT LeftUpLeg
		{
			OFFSET 0.949434 -0.248378 0.086503
			CHANNELS 3 Zrotation Yrotation Xrotation
			JOINT LeftLeg
			{
				OFFSET -0.076513 -3.879421 -0.177038
				CHANNELS 3 Zrotation Yrotation Xrotation
				JOINT LeftFoot
				{
					OFFSET -0.188964 -3.680973 -0.122632
					CHANNELS 3 Zrotation Yrotation Xrotation
					JOINT LeftToeBase
					{
						OFFSET 0.055451 -0.524480 1.120382
						CHANNELS 3 Zrotation Yrotation Xrotation
						End Site
						{
							OFFSET 0.007944 -0.006006 0.139660
						}
					}
				}
			}
		}
	}
	JOINT RHipJoint
	{
		OFFSET 0 0 0
		CHANNELS 3 Zrotation Yrotation Xrotation
		JOINT RightUpLeg
		{
			OFFSET -0.949434 -0.248378 0.086503
			CHANNELS 3 Zrotation Yrotation Xrotation
			JOINT RightLeg
			{
				OFFSET 0.076513 -3.879421 -0.177038
				CHANNELS 3 Zrotation Yrotation Xrotation
				JOINT RightFoot
				{
					OFFSET 0.188964 -3.680973 -0.122632
					CHANNELS 3 Zrotation Yrotation Xrotation
					JOINT RightToeBase
					{
						OFFSET -0.055451 -0.524480 1.120382
						CHANNELS 3 Zrotation Yrotation Xrotation
						End Site
						{
							OFFSET -0.007944 -0.006006 0.139660
						}
					}
				}
			}
		}
	}
	JOINT LowerBack
	{
		OFFSET 0 0 0
		CHANNELS 3 Zrotation Yrotation Xrotation
		JOINT Spine
		{
			OFFSET 0.000000 0.677144 0.028277
			CHANNELS 3 Zrotation Yrotation Xrotation
			JOINT Spine1
			{
				OFFSET 0.000000 2.156116 -0.508617
				CHANNELS 3 Zrotation Yrotation Xrotation
				JOINT Neck
				{
					OFFSET 0 0 0
					CHANNELS 3 Zrotation Yrotation Xrotation
					JOINT Neck1
					{
						OFFSET 0.000000 1.781871 0.216275
						CHANNELS 3 Zrotation Yrotation Xrotation
						JOINT Head
						{
							OFFSET 0.000000 1.015906 -0.026879
							CHANNELS 3 Zrotation Yrotation Xrotation
							End Site
							{
								OFFSET 0.000000 0.339197 0.983632
							}
						}
					}
				}
				JOINT LeftShoulder
				{
					OFFSET 0 0 0
					CHANNELS 3 Zrotation Yrotation Xrotation
					JOINT LeftArm
					{
						OFFSET 1.565866 1.184736 0.289545
						CHANNELS 3 Zrotation Yrotation Xrotation
						JOINT LeftForeArm
						{
							OFFSET 1.930940 -0.176441 -0.109244
							CHANNELS 3 Zrotation Yrotation Xrotation
							JOINT LeftHand
							{
								OFFSET 2.263412 -0.058986 0.122483
								CHANNELS 3 Zrotation Yrotation Xrotation
								JOINT LeftFingerBase
								{
									OFFSET 0 0 0
									CHANNELS 3 Zrotation Yrotation Xrotation
									JOINT LeftHandIndex1
									{
										OFFSET 0.944218 0.017559 0.358417
										CHANNELS 3 Zrotation Yrotation Xrotation
										End Site
										{
											OFFSET 0.237801 -0.022714 0.035813
										}
									}
								}
								JOINT LThumb
								{
									OFFSET 0 0 0
									CHANNELS 3 Zrotation Yrotation Xrotation
									End Site
									{
										OFFSET 0.234930 -0.092931 0.244282
									}
								}
							}
						}
					}
				}
				JOINT RightShoulder
				{
					OFFSET 0 0 0
					CHANNELS 3 Zrotation Yrotation Xrotation
					JOINT RightArm
					{
						OFFSET -1.565866 1.184736 0.289545
						CHANNELS 3 Zrotation Yrotation Xrotation
						JOINT RightForeArm
						{
							OFFSET -1.930940 -0.176441 -0.109244
							CHANNELS 3 Zrotation Yrotation Xrotation
							JOINT RightHand
							{
								OFFSET -2.263412 -0.058986 0.122483
								CHANNELS 3 Zrotation Yrotation Xrotation
								JOINT RightFingerBase
								{
									OFFSET 0 0 0
									CHANNELS 3 Zrotation Yrotation Xrotation
									JOINT RightHandIndex1
									{
										OFFSET -0.944218 0.017559 0.358417
										CHANNELS 3 Zrotation Yrotation Xrotation
										End Site
										{
											OFFSET -0.237801 -0.022714 0.035813
										}
									}
								}
								JOINT RThumb
								{
									OFFSET 0 0 0
									CHANNELS 3 Zrotation Yrotation Xrotation
									End Site
									{
										OFFSET -0.234930 -0.092931 0.244282
									}
								}
							}
						}
					}
				}
			}
		}
	}
}
MOTION
Frames: 10
Frame Time: .0083333
0.149227 9.644309 0.176022 -153.322998 27.080799 203.582001 0.000000 0.000000 0.000000 20.083300 -14.282800 -13.627500 3.803700 11.894500 35.359699 178.302902 -30.480801 -11.147200 2.681300 -10.160300 -29.497601 0.000000 0.000000 0.000000 -66.515800 31.908899 -44.881401 -3.394800 -11.308300 33.326801 177.533295 43.705200 -39.874199 -10.033600 -17.428699 59.600601 11.488800 -1.852600 -0.279400 8.092200 -0.277700 -7.735600 2.203300 -0.064600 -8.291100 -14.188800 -22.601101 12.353500 6.945900 -31.481701 7.863800 -0.024600 -14.347600 2.796000 0.000000 -0.000000 0.000000 2.515700 -27.067900 12.327400 67.730301 -58.040600 -40.840801 -0.000000 -0.000000 24.112600 43.476501 6.994900 6.586900 -7.125000 0.000000 -0.000000 14.496800 39.172600 -2.134100 0.000000 -0.000000 0.000000 12.662800 -2.566000 -13.658100 -13.794600 22.440399 -2.749200 0.000000 0.000000 16.158800 -9.333500 16.547600 -2.680100 7.125000 -0.000000 -0.000000 12.275700 -13.494600 9.292500
0.156243 9.770442 0.123481 -153.772995 29.694401 203.533997 0.000000 0.000000 0.000000 18.234200 -13.109500 -11.204600 3.225800 11.051900 32.455002 177.876099 -30.684700 -8.134900 2.396100 -9.646600 -27.839600 0.000000 0.000000 0.000000 -66.559502 31.137501 -43.559200 -3.315300 -11.188700 32.919102 178.496307 44.350700 -37.049301 -9.955400 -17.384701 59.339100 11.587700 -2.052200 -0.759600 8.562600 -0.391400 -8.341100 2.686800 -0.076500 -8.716200 -15.182200 -22.106100 12.892200 5.398600 -30.248199 8.995399 -0.167300 -14.038400 2.905900 0.000000 -0.000000 0.000000 4.385800 -24.431801 14.476200 62.321701 -56.897499 -36.279499 -0.000000 -0.000000 24.630199 44.545601 6.011400 5.885200 -7.125000 0.000000 -0.000000 15.245500 37.964298 -2.716900 0.000000 -0.000000 0.000000 9.171200 -4.146300 -12.410900 -12.393400 20.392000 -2.237500 0.000000 0.000000 17.219000 -6.091000 11.372400 -1.205400 7.125000 -0.000000 -0.000000 14.694800 -18.738199 9.512300
0.176961 9.903536 0.076519 -154.723999 31.980801 203.429001 0.000000 0.000000 0.000000 16.428299 -12.353300 -9.384300 2.727800 10.240700 29.759899 177.554001 -30.684299 -5.328400 1.688400 -8.184500 -23.275801 0.000000 0.000000 0.000000 -67.046295 30.354300 -41.972099 -3.242200 -11.077200 32.540600 178.258301 43.683899 -37.438400 -9.971600 -17.393900 59.393501 12.089600 -2.101000 -2.460700 8.287200 -0.777000 -8.403500 2.091600 -0.295000 -7.823400 -15.644000 -21.808901 12.659200 4.761600 -29.603100 9.998100 -0.283300 -13.801600 3.278600 -0.000000 -0.000000 0.000000 7.668400 -22.987801 15.552400 57.818100 -55.699902 -32.532001 -0.000000 -0.000000 25.944201 44.435001 6.794300 6.616400 -7.125000 0.000000 -0.000000 15.303500 39.003899 -2.324900 -0.000000 -0.000000 0.000000 7.172100 -4.847500 -16.767799 -10.689500 17.810699 -1.679700 0.000000 0.000000 22.320200 -3.167100 6.112700 -0.337600 7.125000 -0.000000 -0.000000 17.264601 -23.866600 9.211900
0.205525 10.045635 0.034033 -155.899994 34.076500 203.410004 0.000000 0.000000 0.000000 14.818200 -12.107300 -8.062300 2.309200 9.482400 27.316500 177.334793 -30.587200 -2.960500 0.839300 -5.843900 -16.332100 0.000000 0.000000 0.000000 -67.964203 29.973801 -40.288700 -3.175400 -10.973700 32.191200 177.038193 42.331501 -40.778198 -10.041100 -17.432899 59.625801 12.380400 -1.889700 -3.977600 7.788700 -0.781200 -8.652000 1.366400 -0.331900 -7.232500 -15.275700 -21.925600 11.727800 3.634700 -29.483601 11.328499 -0.846800 -13.722400 3.749300 -0.000000 -0.000000 0.000000 11.011700 -21.865801 17.629000 51.536201 -53.596600 -27.405800 -0.000000 -0.000000 27.041401 45.219200 7.643700 7.634100 -7.125000 0.000000 -0.000000 16.174801 40.231998 -1.960200 -0.000000 -0.000000 0.000000 5.473600 -6.698900 -22.723801 -9.465000 15.898400 -1.324600 0.000000 0.000000 28.827700 0.010400 5.772200 0.001000 7.125000 -0.000000 -0.000000 19.568100 -24.183201 10.431100
0.240884 10.196795 -0.005801 -157.050995 36.112400 203.533997 0.000000 0.000000 0.000000 13.594999 -12.122100 -7.229900 1.984400 8.833600 25.276199 177.139603 -31.149200 -2.100000 0.102500 -2.064300 -5.683300 0.000000 0.000000 0.000000 -69.117996 30.173901 -38.611900 -3.115300 -10.879400 31.874201 174.883499 39.461102 -46.641201 -10.149300 -17.493000 59.986301 12.982600 -1.661100 -6.035000 7.199400 -0.829700 -8.999800 0.377700 -0.392800 -6.479200 -16.026100 -21.770300 12.115499 3.409800 -29.161699 12.166302 -0.800400 -13.637100 4.129100 0.000000 0.000000 0.000000 13.801200 -21.157000 19.839199 45.921501 -51.212002 -22.954800 -0.000000 -0.000000 28.844900 46.094700 8.915800 9.147300 -7.125000 0.000000 -0.000000 17.259300 42.066002 -1.291700 0.000000 0.000000 0.000000 3.887700 -8.614900 -28.955799 -8.651000 14.602500 -1.110500 0.000000 0.000000 36.343102 2.966700 5.522600 0.285800 7.125000 -0.000000 -0.000000 21.680799 -24.381901 11.615600
0.286575 10.351049 -0.037790 -158.451996 38.096901 203.386002 0.000000 0.000000 0.000000 12.610200 -11.923700 -6.549100 1.756100 8.338400 23.746599 178.379700 -30.426800 -11.637000 2.020600 8.908900 25.510700 0.000000 0.000000 0.000000 -70.309097 30.449200 -36.850899 -3.063800 -10.797700 31.600500 172.744507 35.607498 -52.438599 -10.287900 -17.568600 60.446201 13.253300 -1.256000 -7.995800 6.556900 -0.569300 -9.560700 -0.468900 -0.282500 -5.990700 -17.582800 -21.693800 13.639200 3.673400 -29.104500 12.633400 -0.426200 -13.747500 4.406300 -0.000000 0.000000 0.000000 15.905800 -21.313400 22.558100 40.688599 -48.472599 -18.953199 -0.000000 -0.000000 30.796600 48.165401 11.410500 12.462100 -7.125000 0.000000 -0.000000 19.922899 45.813900 0.416800 -0.000000 0.000000 0.000000 2.041500 -11.604900 -32.387001 -8.217100 13.904100 -1.003600 0.000000 0.000000 41.823799 5.338400 4.625600 0.431800 7.125000 -0.000000 -0.000000 23.488800 -25.160101 12.287700
0.339668 10.502210 -0.052873 -160.384003 40.103901 202.837006 0.000000 0.000000 0.000000 11.587600 -10.485700 -6.218900 1.619300 8.023400 22.785101 -179.940399 -25.998199 -18.739401 5.105800 13.501900 41.277599 0.000000 0.000000 0.000000 -71.833603 30.520700 -35.200500 -3.037600 -10.755700 31.460400 171.008698 31.429800 -57.223701 -10.439100 -17.649500 60.946201 13.031500 -1.766700 -10.340900 5.974700 -1.808200 -9.297000 -1.069900 -0.869800 -4.506500 -16.820101 -21.038300 12.219100 3.177400 -27.982401 13.399101 -0.612900 -13.178000 4.676000 0.000000 0.000000 0.000000 18.414501 -18.435101 24.271099 36.096699 -45.579601 -15.591500 -0.000000 -0.000000 32.819500 44.064499 10.360100 9.873700 -7.125000 0.000000 -0.000000 15.654500 43.683899 -0.522000 0.000000 0.000000 0.000000 0.905700 -10.722200 -39.410500 -7.723200 13.103300 -0.888300 0.000000 0.000000 50.366798 7.636800 3.595900 0.481800 7.125000 -0.000000 -0.000000 25.280899 -26.028400 12.845800
0.391381 10.652100 -0.043315 -161.921997 42.021801 202.490997 0.000000 0.000000 0.000000 11.287100 -7.436500 -6.565700 1.558800 7.879200 22.347900 -179.355606 -23.135000 -20.595900 6.341700 14.751500 46.338299 0.000000 0.000000 0.000000 -73.116699 30.728701 -34.110802 -3.068300 -10.804800 31.624300 169.477997 27.087200 -61.623699 -10.529700 -17.697201 61.244598 12.921100 -2.010000 -12.093600 5.389500 -2.463100 -9.376500 -1.721400 -1.190100 -3.719800 -16.269501 -20.564699 11.798500 2.716900 -27.197300 13.925598 -0.717100 -12.815500 4.729100 0.000000 -0.000000 0.000000 20.263100 -16.607901 25.722401 32.562500 -42.991100 -13.122800 -0.000000 -0.000000 34.858700 40.554798 10.659800 8.994800 -7.125000 0.000000 -0.000000 12.376400 43.543999 -0.452000 0.000000 -0.000000 0.000000 -0.156700 -11.110900 -44.449299 -7.527300 12.783800 -0.844400 0.000000 0.000000 57.524601 9.487200 2.475100 0.413500 7.125000 -0.000000 -0.000000 26.799200 -26.966299 13.128200
0.453978 10.792155 -0.068619 -162.300995 43.166401 202.552994 0.000000 0.000000 0.000000 12.365700 -1.592600 -7.477400 1.593100 7.961400 22.596901 178.022095 -29.670900 -7.834100 4.819100 13.177100 40.035198 0.000000 0.000000 0.000000 -72.859200 32.068199 -31.798500 -3.157700 -10.946100 32.098400 168.004593 21.968901 -66.023003 -10.511700 -17.687700 61.185200 14.237400 -1.894700 -14.294800 4.994900 -2.787000 -9.389100 -2.949500 -1.355600 -2.734900 -17.017000 -20.374201 12.578200 2.720900 -26.908400 14.082600 -0.507900 -12.799600 4.757900 -0.000000 -0.000000 0.000000 21.426800 -15.548800 27.341499 29.806601 -40.727001 -11.283200 -0.000000 -0.000000 36.285801 37.178699 11.612800 8.680600 -7.125000 0.000000 -0.000000 9.271100 44.243599 -0.174600 -0.000000 -0.000000 0.000000 -1.743000 -13.212300 -41.688202 -7.546100 12.814400 -0.848600 0.000000 0.000000 57.263901 10.893600 0.377800 0.072700 7.125000 -0.000000 -0.000000 28.287500 -28.779699 12.643000
0.505083 10.926077 -0.030939 -162.544006 44.483601 202.203003 0.000000 0.000000 0.000000 13.782000 2.703100 -7.882400 1.761300 8.350000 23.782400 176.579300 -30.648899 11.251800 3.045100 10.767700 31.500299 0.000000 0.000000 0.000000 -72.599197 33.586201 -30.344000 -3.300900 -11.166900 32.845001 166.878098 17.680000 -69.507896 -10.496400 -17.679701 61.135101 14.683700 -2.736100 -14.740300 5.629700 -3.958300 -9.496600 -2.632200 -1.920800 -2.805500 -19.246000 -19.699800 13.013400 2.851700 -25.685699 13.908901 0.046600 -12.569600 4.884900 0.000000 0.000000 0.000000 20.781000 -12.208200 29.177299 27.327600 -38.489799 -9.702300 -0.000000 -0.000000 37.614300 33.629299 13.154800 8.607700 -7.125000 0.000000 -0.000000 5.921700 45.574902 0.084300 0.000000 0.000000 0.000000 -3.857300 -11.588000 -50.905300 -7.635700 12.960600 -0.868600 0.000000 0.000000 69.263802 11.745700 0.635400 0.132100 7.125000 -0.000000 -0.000000 28.799101 -28.497499 13.163400
